<svg width="18" height="19" viewBox="0 0 18 19" fill="none" xmlns="http://www.w3.org/2000/svg">
<g clip-path="url(#clip0_31_1523)">
<path d="M3.75 6.42046C3.75 3.72201 6.10051 1.53448 9 1.53448C11.8995 1.53448 14.25 3.72201 14.25 6.42046C14.25 9.09777 12.5744 12.2219 9.96005 13.3392C9.35061 13.5996 8.64939 13.5996 8.03995 13.3392C5.42562 12.2219 3.75 9.09777 3.75 6.42046Z" stroke="#89AFFF" stroke-width="1.5"/>
<path d="M10.5 6.78448C10.5 7.61291 9.82843 8.28448 9 8.28448C8.17157 8.28448 7.5 7.61291 7.5 6.78448C7.5 5.95606 8.17157 5.28448 9 5.28448C9.82843 5.28448 10.5 5.95606 10.5 6.78448Z" stroke="#89AFFF" stroke-width="1.5"/>
<path d="M15.7204 11.6595C16.2194 12.1113 16.5 12.6207 16.5 13.1595C16.5 15.0234 13.1421 16.5345 9 16.5345C4.85786 16.5345 1.5 15.0234 1.5 13.1595C1.5 12.6207 1.78059 12.1113 2.2796 11.6595" stroke="#89AFFF" stroke-width="1.5" stroke-linecap="round"/>
</g>
<defs>
<clipPath id="clip0_31_1523">
<rect width="18" height="18" fill="white" transform="translate(0 0.0344849)"/>
</clipPath>
</defs>
</svg>
