<svg width="24" height="24" viewBox="0 0 24 24" fill="none" xmlns="http://www.w3.org/2000/svg">
<path d="M10.5 10.75C10.5 11.0455 10.4418 11.3381 10.3287 11.611C10.2157 11.884 10.0499 12.1321 9.84099 12.341C9.63206 12.5499 9.38402 12.7157 9.11104 12.8287C8.83806 12.9418 8.54547 13 8.25 13C7.95453 13 7.66194 12.9418 7.38896 12.8287C7.11598 12.7157 6.86794 12.5499 6.65901 12.341C6.45008 12.1321 6.28434 11.884 6.17127 11.611C6.0582 11.3381 6 11.0455 6 10.75C6 10.1533 6.23705 9.58097 6.65901 9.15901C7.08097 8.73705 7.65326 8.5 8.25 8.5C8.84674 8.5 9.41903 8.73705 9.84099 9.15901C10.2629 9.58097 10.5 10.1533 10.5 10.75ZM9.25 10.75C9.25 10.4848 9.14464 10.2304 8.95711 10.0429C8.76957 9.85536 8.51522 9.75 8.25 9.75C7.98478 9.75 7.73043 9.85536 7.54289 10.0429C7.35536 10.2304 7.25 10.4848 7.25 10.75C7.25 11.0152 7.35536 11.2696 7.54289 11.4571C7.73043 11.6446 7.98478 11.75 8.25 11.75C8.51522 11.75 8.76957 11.6446 8.95711 11.4571C9.14464 11.2696 9.25 11.0152 9.25 10.75ZM8.25 18.5C8.84674 18.5 9.41903 18.2629 9.84099 17.841C10.2629 17.419 10.5 16.8467 10.5 16.25C10.5 15.6533 10.2629 15.081 9.84099 14.659C9.41903 14.2371 8.84674 14 8.25 14C7.65326 14 7.08097 14.2371 6.65901 14.659C6.23705 15.081 6 15.6533 6 16.25C6 16.8467 6.23705 17.419 6.65901 17.841C7.08097 18.2629 7.65326 18.5 8.25 18.5ZM8.25 17.25C7.98478 17.25 7.73043 17.1446 7.54289 16.9571C7.35536 16.7696 7.25 16.5152 7.25 16.25C7.25 15.9848 7.35536 15.7304 7.54289 15.5429C7.73043 15.3554 7.98478 15.25 8.25 15.25C8.51522 15.25 8.76957 15.3554 8.95711 15.5429C9.14464 15.7304 9.25 15.9848 9.25 16.25C9.25 16.5152 9.14464 16.7696 8.95711 16.9571C8.76957 17.1446 8.51522 17.25 8.25 17.25ZM6.625 6C6.45924 6 6.30027 6.06585 6.18306 6.18306C6.06585 6.30027 6 6.45924 6 6.625C6 6.79076 6.06585 6.94973 6.18306 7.06694C6.30027 7.18415 6.45924 7.25 6.625 7.25H17.375C17.5408 7.25 17.6997 7.18415 17.8169 7.06694C17.9342 6.94973 18 6.79076 18 6.625C18 6.45924 17.9342 6.30027 17.8169 6.18306C17.6997 6.06585 17.5408 6 17.375 6H6.625ZM11.5 10.875C11.5 10.53 11.78 10.25 12.125 10.25H17.375C17.5408 10.25 17.6997 10.3158 17.8169 10.4331C17.9342 10.5503 18 10.7092 18 10.875C18 11.0408 17.9342 11.1997 17.8169 11.3169C17.6997 11.4342 17.5408 11.5 17.375 11.5H12.125C11.78 11.5 11.5 11.22 11.5 10.875ZM12.125 15.5C11.9592 15.5 11.8003 15.5658 11.6831 15.6831C11.5658 15.8003 11.5 15.9592 11.5 16.125C11.5 16.2908 11.5658 16.4497 11.6831 16.5669C11.8003 16.6842 11.9592 16.75 12.125 16.75H17.375C17.5408 16.75 17.6997 16.6842 17.8169 16.5669C17.9342 16.4497 18 16.2908 18 16.125C18 15.9592 17.9342 15.8003 17.8169 15.6831C17.6997 15.5658 17.5408 15.5 17.375 15.5H12.125ZM6.125 3C5.2962 3 4.50134 3.32924 3.91529 3.91529C3.32924 4.50134 3 5.2962 3 6.125V17.875C3 18.7038 3.32924 19.4987 3.91529 20.0847C4.50134 20.6708 5.2962 21 6.125 21H17.875C18.7038 21 19.4987 20.6708 20.0847 20.0847C20.6708 19.4987 21 18.7038 21 17.875V6.125C21 5.2962 20.6708 4.50134 20.0847 3.91529C19.4987 3.32924 18.7038 3 17.875 3H6.125ZM4.25 6.125C4.25 5.62772 4.44754 5.15081 4.79917 4.79917C5.15081 4.44754 5.62772 4.25 6.125 4.25H17.875C18.3723 4.25 18.8492 4.44754 19.2008 4.79917C19.5525 5.15081 19.75 5.62772 19.75 6.125V17.875C19.75 18.3723 19.5525 18.8492 19.2008 19.2008C18.8492 19.5525 18.3723 19.75 17.875 19.75H6.125C5.62772 19.75 5.15081 19.5525 4.79917 19.2008C4.44754 18.8492 4.25 18.3723 4.25 17.875V6.125Z" fill="#8E8E90"/>
</svg>
